<svg width="30" height="30" viewBox="0 0 30 30" fill="none" xmlns="http://www.w3.org/2000/svg">
<mask id="mask0" mask-type="alpha" maskUnits="userSpaceOnUse" x="0" y="0" width="30" height="30">
<rect width="30" height="30" fill="#C4C4C4"/>
</mask>
<g mask="url(#mask0)">
<path fill-rule="evenodd" clip-rule="evenodd" d="M2 29.5L4 7.5H8.75V7C8.75 3.68629 11.4363 1 14.75 1C18.0637 1 20.75 3.68629 20.75 7V7.5H25.5L27.5 29.5H2ZM5.09586 8.7L3.31404 28.3H26.186L24.4041 8.7H20.75V10.1779C21.051 10.3742 21.25 10.7138 21.25 11.1C21.25 11.7075 20.7575 12.2 20.15 12.2C19.5425 12.2 19.05 11.7075 19.05 11.1C19.05 10.7138 19.249 10.3742 19.55 10.1779V8.7H9.95V10.1779C10.251 10.3742 10.45 10.7138 10.45 11.1C10.45 11.7075 9.95751 12.2 9.35 12.2C8.74249 12.2 8.25 11.7075 8.25 11.1C8.25 10.7138 8.44898 10.3742 8.75 10.1779V8.7H5.09586ZM14.75 2.2C12.099 2.2 9.95 4.34903 9.95 7V7.5H19.55V7C19.55 4.34903 17.401 2.2 14.75 2.2Z" fill="#141414"/>
</g>
</svg>
