<svg width="130" height="148" viewBox="0 0 130 148" fill="none" xmlns="http://www.w3.org/2000/svg">
<g filter="url(#filter0_d)">
<path d="M61 59C61 69.7696 52.2696 78.5 41.5 78.5C30.7304 78.5 22 69.7696 22 59C22 48.2304 30.7304 39.5 41.5 39.5C52.2696 39.5 61 48.2304 61 59Z" fill="#FB0A2A"/>
<g filter="url(#filter1_d)">
<path fill-rule="evenodd" clip-rule="evenodd" d="M41.5 77.3977C51.6608 77.3977 59.8977 69.1608 59.8977 59C59.8977 48.8392 51.6608 40.6023 41.5 40.6023C31.3392 40.6023 23.1023 48.8392 23.1023 59C23.1023 69.1608 31.3392 77.3977 41.5 77.3977ZM41.5 78.5C52.2696 78.5 61 69.7696 61 59C61 48.2304 52.2696 39.5 41.5 39.5C30.7304 39.5 22 48.2304 22 59C22 69.7696 30.7304 78.5 41.5 78.5Z" fill="white"/>
</g>
<mask id="path-3-inside-1" fill="white">
<ellipse cx="41.4996" cy="59.3362" rx="14.1207" ry="13.7845"/>
</mask>
<ellipse cx="41.4996" cy="59.3362" rx="14.1207" ry="13.7845" fill="white"/>
<path d="M34.6203 59.3362C34.6203 54.877 38.1802 52.1207 41.4996 52.1207V94.1207C60.4163 94.1207 76.6203 79.0214 76.6203 59.3362H34.6203ZM41.4996 52.1207C44.819 52.1207 48.3789 54.877 48.3789 59.3362H6.37891C6.37891 79.0214 22.5829 94.1207 41.4996 94.1207V52.1207ZM48.3789 59.3362C48.3789 63.7954 44.819 66.5518 41.4996 66.5518V24.5518C22.5829 24.5518 6.37891 39.6511 6.37891 59.3362H48.3789ZM41.4996 66.5518C38.1802 66.5518 34.6203 63.7954 34.6203 59.3362H76.6203C76.6203 39.6511 60.4163 24.5518 41.4996 24.5518V66.5518Z" fill="white" mask="url(#path-3-inside-1)"/>
<path d="M33.5991 64.8172V62.7816L37.1711 58.9451C37.5304 58.5484 37.7921 58.23 37.9564 57.9899C38.1206 57.7394 38.2027 57.4941 38.2027 57.254C38.2027 56.9825 38.1155 56.7633 37.941 56.5963C37.7767 56.4293 37.5458 56.3458 37.2481 56.3458C36.6117 56.3458 36.1293 56.7268 35.8008 57.4889L33.4297 56.1422C33.7787 55.3175 34.2919 54.6911 34.9694 54.2631C35.6468 53.8351 36.3961 53.6211 37.2173 53.6211C38.2438 53.6211 39.1214 53.9343 39.8502 54.5606C40.5892 55.1765 40.9587 56.0221 40.9587 57.0974C40.9587 57.7342 40.8099 58.324 40.5122 58.8668C40.2248 59.3992 39.7988 59.963 39.2343 60.558L37.7716 62.1082H41.1435V64.8172H33.5991Z" fill="#1F191B"/>
<path d="M47.2735 58.3188C47.9612 58.538 48.5155 58.9138 48.9363 59.4462C49.3572 59.9786 49.5676 60.6206 49.5676 61.3723C49.5676 62.5519 49.1878 63.4601 48.4283 64.0969C47.6687 64.7337 46.7295 65.0521 45.6106 65.0521C44.7176 65.0521 43.9221 64.8433 43.2241 64.4258C42.5364 64.0082 42.0386 63.3923 41.7306 62.578L44.1325 61.1844C44.3584 61.9464 44.8511 62.3275 45.6106 62.3275C46.0007 62.3275 46.2984 62.2335 46.5036 62.0456C46.7192 61.8577 46.827 61.6072 46.827 61.294C46.827 60.9808 46.7192 60.7355 46.5036 60.558C46.2984 60.3701 46.0007 60.2761 45.6106 60.2761H45.0256L43.9632 58.6789L45.6876 56.5337H42.0694V53.856H49.0749V56.0639L47.2735 58.3188Z" fill="#1F191B"/>
</g>
<defs>
<filter id="filter0_d" x="16" y="33.5" width="55" height="55" filterUnits="userSpaceOnUse" color-interpolation-filters="sRGB">
<feFlood flood-opacity="0" result="BackgroundImageFix"/>
<feColorMatrix in="SourceAlpha" type="matrix" values="0 0 0 0 0 0 0 0 0 0 0 0 0 0 0 0 0 0 127 0"/>
<feOffset dx="2" dy="2"/>
<feGaussianBlur stdDeviation="4"/>
<feColorMatrix type="matrix" values="0 0 0 0 0 0 0 0 0 0 0 0 0 0 0 0 0 0 0.15 0"/>
<feBlend mode="normal" in2="BackgroundImageFix" result="effect1_dropShadow"/>
<feBlend mode="normal" in="SourceGraphic" in2="effect1_dropShadow" result="shape"/>
</filter>
<filter id="filter1_d" x="-17" y="0.5" width="147" height="147" filterUnits="userSpaceOnUse" color-interpolation-filters="sRGB">
<feFlood flood-opacity="0" result="BackgroundImageFix"/>
<feColorMatrix in="SourceAlpha" type="matrix" values="0 0 0 0 0 0 0 0 0 0 0 0 0 0 0 0 0 0 127 0"/>
<feOffset dx="15" dy="15"/>
<feGaussianBlur stdDeviation="27"/>
<feColorMatrix type="matrix" values="0 0 0 0 0 0 0 0 0 0 0 0 0 0 0 0 0 0 0.25 0"/>
<feBlend mode="normal" in2="BackgroundImageFix" result="effect1_dropShadow"/>
<feBlend mode="normal" in="SourceGraphic" in2="effect1_dropShadow" result="shape"/>
</filter>
</defs>
</svg>
