<svg width="22" height="22" viewBox="0 0 22 22" fill="none" xmlns="http://www.w3.org/2000/svg">
<mask id="mask0" mask-type="alpha" maskUnits="userSpaceOnUse" x="0" y="0" width="22" height="22">
<rect width="22" height="22" fill="#C4C4C4"/>
</mask>
<g mask="url(#mask0)">
<g filter="url(#filter0_d)">
<path fill-rule="evenodd" clip-rule="evenodd" d="M5 2.96078C5 1.87787 5.8687 1 6.9403 1H16.0597C17.1313 1 18 1.87787 18 2.96078V19.0392C18 20.1221 17.1313 21 16.0597 21H6.9403C5.8687 21 5 20.1221 5 19.0392V2.96078ZM6.9403 1.98039C6.4045 1.98039 5.97015 2.41933 5.97015 2.96078V19.0392C5.97015 19.5807 6.4045 20.0196 6.9403 20.0196H16.0597C16.5955 20.0196 17.0299 19.5807 17.0299 19.0392V2.96078C17.0299 2.41933 16.5955 1.98039 16.0597 1.98039H15.7201C15.3878 2.25763 15.2242 2.82976 15.132 3.47468C15.0592 3.98359 14.6469 4.38235 14.1381 4.38235H8.86191C8.35309 4.38235 7.94082 3.98359 7.86804 3.47468C7.77581 2.82976 7.61215 2.25763 7.27985 1.98039H6.9403ZM8.57452 2.25133C8.70136 2.59994 8.77741 2.97917 8.82821 3.33445C8.83272 3.36596 8.84701 3.38736 8.85807 3.39764C8.86045 3.39985 8.86347 3.40196 8.86347 3.40196H14.1365C14.1365 3.40196 14.1396 3.39985 14.1419 3.39764C14.153 3.38736 14.1673 3.36596 14.1718 3.33445C14.2226 2.97917 14.2986 2.59994 14.4255 2.25133C14.4574 2.1637 14.4944 2.07251 14.5379 1.98039H8.46213C8.50559 2.07251 8.54264 2.1637 8.57452 2.25133Z" fill="#141414"/>
<path d="M9.75373 2.71569C9.75373 2.52618 9.90575 2.37255 10.0933 2.37255H11.6455C11.8331 2.37255 11.9851 2.52618 11.9851 2.71569C11.9851 2.9052 11.8331 3.05882 11.6455 3.05882H10.0933C9.90575 3.05882 9.75373 2.9052 9.75373 2.71569Z" fill="#141414"/>
<path d="M12.3731 2.71569C12.3731 2.52618 12.5252 2.37255 12.7127 2.37255C12.9002 2.37255 13.0522 2.52618 13.0522 2.71569C13.0522 2.9052 12.9002 3.05882 12.7127 3.05882C12.5252 3.05882 12.3731 2.9052 12.3731 2.71569Z" fill="#141414"/>
</g>
</g>
<defs>
<filter id="filter0_d" x="1" y="1" width="21" height="28" filterUnits="userSpaceOnUse" color-interpolation-filters="sRGB">
<feFlood flood-opacity="0" result="BackgroundImageFix"/>
<feColorMatrix in="SourceAlpha" type="matrix" values="0 0 0 0 0 0 0 0 0 0 0 0 0 0 0 0 0 0 127 0"/>
<feOffset dy="4"/>
<feGaussianBlur stdDeviation="2"/>
<feColorMatrix type="matrix" values="0 0 0 0 0 0 0 0 0 0 0 0 0 0 0 0 0 0 0.25 0"/>
<feBlend mode="normal" in2="BackgroundImageFix" result="effect1_dropShadow"/>
<feBlend mode="normal" in="SourceGraphic" in2="effect1_dropShadow" result="shape"/>
</filter>
</defs>
</svg>
