<svg width="14" height="23" viewBox="0 0 14 23" fill="none" xmlns="http://www.w3.org/2000/svg">
<path fill-rule="evenodd" clip-rule="evenodd" d="M6.72035 0H7.27965L7.30845 0.00389715C10.1777 0.392071 12.0283 1.69616 13.0415 3.56923C14.0417 5.41823 14.1859 7.74876 13.8095 10.1307C13.058 14.8863 10.1916 20.0946 7.29351 22.7328L7 23L6.70648 22.7328C3.80841 20.0946 0.942046 14.8863 0.190526 10.1307C-0.185886 7.74876 -0.0416748 5.41823 0.958491 3.56923C1.97168 1.69616 3.82235 0.392071 6.69154 0.00389715L6.72035 0ZM6.77874 0.90479C4.15293 1.2669 2.58248 2.43425 1.73139 4.00765C0.864197 5.61082 0.703103 7.71044 1.06273 9.98616C1.75756 14.383 4.35907 19.2052 7 21.7799C9.64093 19.2052 12.2424 14.383 12.9373 9.98616C13.2969 7.71044 13.1358 5.61082 12.2686 4.00765C11.4175 2.43425 9.84707 1.2669 7.22126 0.90479H6.77874Z" fill="#393840"/>
<path fill-rule="evenodd" clip-rule="evenodd" d="M7.00013 10.5032C8.25491 10.5032 9.27212 9.46149 9.27212 8.17655C9.27212 6.8916 8.25491 5.84994 7.00013 5.84994C5.74534 5.84994 4.72814 6.8916 4.72814 8.17655C4.72814 9.46149 5.74534 10.5032 7.00013 10.5032ZM7.00013 11.4079C8.74289 11.4079 10.1557 9.9612 10.1557 8.17655C10.1557 6.3919 8.74289 4.94515 7.00013 4.94515C5.25737 4.94515 3.84458 6.3919 3.84458 8.17655C3.84458 9.9612 5.25737 11.4079 7.00013 11.4079Z" fill="#393840"/>
</svg>
