<svg width="166" height="166" viewBox="0 0 166 166" fill="none" xmlns="http://www.w3.org/2000/svg">
<path d="M97 68C97 84.0163 84.0163 97 68 97C51.9837 97 39 84.0163 39 68C39 51.9837 51.9837 39 68 39C84.0163 39 97 51.9837 97 68Z" fill="#FB0A2A"/>
<g filter="url(#filter0_d)">
<path fill-rule="evenodd" clip-rule="evenodd" d="M68 95.3607C83.1109 95.3607 95.3607 83.1109 95.3607 68C95.3607 52.8891 83.1109 40.6393 68 40.6393C52.8891 40.6393 40.6393 52.8891 40.6393 68C40.6393 83.1109 52.8891 95.3607 68 95.3607ZM68 97C84.0163 97 97 84.0163 97 68C97 51.9837 84.0163 39 68 39C51.9837 39 39 51.9837 39 68C39 84.0163 51.9837 97 68 97Z" fill="white"/>
</g>
<mask id="path-3-inside-1" fill="white">
<ellipse cx="68" cy="68.5" rx="21" ry="20.5"/>
</mask>
<ellipse cx="68" cy="68.5" rx="21" ry="20.5" fill="white"/>
<path d="M68 68.5C68 68.4578 68.0048 68.3959 68.0201 68.3231C68.0351 68.2516 68.0566 68.1862 68.0807 68.1306C68.128 68.0215 68.1732 67.9752 68.18 67.9686C68.1865 67.9623 68.1795 67.9703 68.1597 67.9785C68.1525 67.9815 68.1105 68 68 68V110C90.716 110 110 91.894 110 68.5H68ZM68 68C67.8895 68 67.8475 67.9815 67.8403 67.9785C67.8205 67.9703 67.8135 67.9623 67.82 67.9686C67.8268 67.9752 67.872 68.0215 67.9193 68.1306C67.9434 68.1862 67.9649 68.2516 67.9799 68.3231C67.9952 68.3959 68 68.4578 68 68.5H26C26 91.894 45.284 110 68 110V68ZM68 68.5C68 68.5422 67.9952 68.6041 67.9799 68.6769C67.9649 68.7484 67.9434 68.8138 67.9193 68.8694C67.872 68.9785 67.8268 69.0248 67.82 69.0314C67.8135 69.0377 67.8205 69.0297 67.8403 69.0215C67.8475 69.0185 67.8895 69 68 69V27C45.284 27 26 45.106 26 68.5H68ZM68 69C68.1105 69 68.1525 69.0185 68.1597 69.0215C68.1795 69.0297 68.1865 69.0377 68.18 69.0314C68.1732 69.0248 68.128 68.9785 68.0807 68.8694C68.0566 68.8138 68.0351 68.7484 68.0201 68.6769C68.0048 68.6041 68 68.5422 68 68.5H110C110 45.106 90.716 27 68 27V69Z" fill="white" mask="url(#path-3-inside-1)"/>
<path d="M56.2519 76.6507V73.6233L61.5642 67.9178C62.0985 67.3279 62.4877 66.8543 62.732 66.4973C62.9762 66.1247 63.0983 65.7598 63.0983 65.4027C63.0983 64.9991 62.9686 64.6731 62.7091 64.4247C62.4648 64.1763 62.1214 64.0521 61.6787 64.0521C60.7322 64.0521 60.0148 64.6187 59.5263 65.7521L56 63.7493C56.519 62.5228 57.2823 61.5913 58.2898 60.9548C59.2973 60.3183 60.4117 60 61.6329 60C63.1594 60 64.4646 60.4658 65.5484 61.3973C66.6475 62.3132 67.1971 63.5708 67.1971 65.1699C67.1971 66.1169 66.9757 66.9941 66.533 67.8014C66.1056 68.5932 65.4721 69.4315 64.6325 70.3164L62.4572 72.6219H67.4718V76.6507H56.2519Z" fill="#1F191B"/>
<path d="M76.5882 66.9863C77.611 67.3123 78.4353 67.8712 79.0612 68.663C79.6871 69.4548 80 70.4096 80 71.5274C80 73.2817 79.4352 74.6324 78.3056 75.5795C77.1759 76.5265 75.7792 77 74.1153 77C72.7872 77 71.6041 76.6895 70.5661 76.0685C69.5433 75.4475 68.8029 74.5315 68.345 73.3205L71.9171 71.2479C72.2529 72.3813 72.9856 72.9479 74.1153 72.9479C74.6953 72.9479 75.138 72.8082 75.4433 72.5288C75.7639 72.2493 75.9242 71.8767 75.9242 71.411C75.9242 70.9452 75.7639 70.5804 75.4433 70.3164C75.138 70.037 74.6953 69.8973 74.1153 69.8973H73.2451L71.6652 67.5219L74.2297 64.3315H68.8487V60.3493H79.2673V63.6329L76.5882 66.9863Z" fill="#1F191B"/>
<defs>
<filter id="filter0_d" x="0" y="0" width="166" height="166" filterUnits="userSpaceOnUse" color-interpolation-filters="sRGB">
<feFlood flood-opacity="0" result="BackgroundImageFix"/>
<feColorMatrix in="SourceAlpha" type="matrix" values="0 0 0 0 0 0 0 0 0 0 0 0 0 0 0 0 0 0 127 0"/>
<feOffset dx="15" dy="15"/>
<feGaussianBlur stdDeviation="27"/>
<feColorMatrix type="matrix" values="0 0 0 0 0 0 0 0 0 0 0 0 0 0 0 0 0 0 0.25 0"/>
<feBlend mode="normal" in2="BackgroundImageFix" result="effect1_dropShadow"/>
<feBlend mode="normal" in="SourceGraphic" in2="effect1_dropShadow" result="shape"/>
</filter>
</defs>
</svg>
