<svg width="166" height="138" viewBox="0 0 166 138" fill="none" xmlns="http://www.w3.org/2000/svg">
<g filter="url(#filter0_d)">
<path d="M97 40C97 56.0163 84.0163 69 68 69C51.9837 69 39 56.0163 39 40C39 23.9837 51.9837 11 68 11C84.0163 11 97 23.9837 97 40Z" fill="#FB0A2A"/>
<g filter="url(#filter1_d)">
<path fill-rule="evenodd" clip-rule="evenodd" d="M68 67.3607C83.1109 67.3607 95.3607 55.1109 95.3607 40C95.3607 24.8891 83.1109 12.6393 68 12.6393C52.8891 12.6393 40.6393 24.8891 40.6393 40C40.6393 55.1109 52.8891 67.3607 68 67.3607ZM68 69C84.0163 69 97 56.0163 97 40C97 23.9837 84.0163 11 68 11C51.9837 11 39 23.9837 39 40C39 56.0163 51.9837 69 68 69Z" fill="white"/>
</g>
<mask id="path-3-inside-1" fill="white">
<ellipse cx="68" cy="40.5" rx="21" ry="20.5"/>
</mask>
<ellipse cx="68" cy="40.5" rx="21" ry="20.5" fill="white"/>
<path d="M68 40.5C68 40.4578 68.0048 40.3959 68.0201 40.3231C68.0351 40.2516 68.0566 40.1862 68.0807 40.1306C68.128 40.0215 68.1732 39.9752 68.18 39.9686C68.1865 39.9623 68.1795 39.9703 68.1597 39.9785C68.1525 39.9815 68.1105 40 68 40V82C90.716 82 110 63.894 110 40.5H68ZM68 40C67.8895 40 67.8475 39.9815 67.8403 39.9785C67.8205 39.9703 67.8135 39.9623 67.82 39.9686C67.8268 39.9752 67.872 40.0215 67.9193 40.1306C67.9434 40.1862 67.9649 40.2516 67.9799 40.3231C67.9952 40.3959 68 40.4578 68 40.5H26C26 63.894 45.284 82 68 82V40ZM68 40.5C68 40.5422 67.9952 40.6041 67.9799 40.6769C67.9649 40.7484 67.9434 40.8138 67.9193 40.8694C67.872 40.9785 67.8268 41.0248 67.82 41.0314C67.8135 41.0377 67.8205 41.0297 67.8403 41.0215C67.8475 41.0185 67.8895 41 68 41V-1C45.284 -1 26 17.106 26 40.5H68ZM68 41C68.1105 41 68.1525 41.0185 68.1597 41.0215C68.1795 41.0297 68.1865 41.0377 68.18 41.0314C68.1732 41.0248 68.128 40.9785 68.0807 40.8694C68.0566 40.8138 68.0351 40.7484 68.0201 40.6769C68.0048 40.6041 68 40.5422 68 40.5H110C110 17.106 90.716 -1 68 -1V41Z" fill="white" mask="url(#path-3-inside-1)"/>
<path d="M56.2519 48.6507V45.6233L61.5642 39.9178C62.0985 39.3279 62.4877 38.8543 62.732 38.4973C62.9762 38.1247 63.0983 37.7598 63.0983 37.4027C63.0983 36.9991 62.9686 36.6731 62.7091 36.4247C62.4648 36.1763 62.1214 36.0521 61.6787 36.0521C60.7322 36.0521 60.0148 36.6187 59.5263 37.7521L56 35.7493C56.519 34.5228 57.2823 33.5913 58.2898 32.9548C59.2973 32.3183 60.4117 32 61.6329 32C63.1594 32 64.4646 32.4658 65.5484 33.3973C66.6475 34.3132 67.1971 35.5708 67.1971 37.1699C67.1971 38.1169 66.9757 38.9941 66.533 39.8014C66.1056 40.5932 65.4721 41.4315 64.6325 42.3164L62.4572 44.6219H67.4718V48.6507H56.2519Z" fill="#1F191B"/>
<path d="M76.5882 38.9863C77.611 39.3123 78.4353 39.8712 79.0612 40.663C79.6871 41.4548 80 42.4096 80 43.5274C80 45.2817 79.4352 46.6324 78.3056 47.5795C77.1759 48.5265 75.7792 49 74.1153 49C72.7872 49 71.6041 48.6895 70.5661 48.0685C69.5433 47.4475 68.8029 46.5315 68.345 45.3205L71.9171 43.2479C72.2529 44.3813 72.9856 44.9479 74.1153 44.9479C74.6953 44.9479 75.138 44.8082 75.4433 44.5288C75.7639 44.2493 75.9242 43.8767 75.9242 43.411C75.9242 42.9452 75.7639 42.5804 75.4433 42.3164C75.138 42.037 74.6953 41.8973 74.1153 41.8973H73.2451L71.6652 39.5219L74.2297 36.3315H68.8487V32.3493H79.2673V35.6329L76.5882 38.9863Z" fill="#1F191B"/>
</g>
<defs>
<filter id="filter0_d" x="33" y="5" width="74" height="74" filterUnits="userSpaceOnUse" color-interpolation-filters="sRGB">
<feFlood flood-opacity="0" result="BackgroundImageFix"/>
<feColorMatrix in="SourceAlpha" type="matrix" values="0 0 0 0 0 0 0 0 0 0 0 0 0 0 0 0 0 0 127 0"/>
<feOffset dx="2" dy="2"/>
<feGaussianBlur stdDeviation="4"/>
<feColorMatrix type="matrix" values="0 0 0 0 0 0 0 0 0 0 0 0 0 0 0 0 0 0 0.15 0"/>
<feBlend mode="normal" in2="BackgroundImageFix" result="effect1_dropShadow"/>
<feBlend mode="normal" in="SourceGraphic" in2="effect1_dropShadow" result="shape"/>
</filter>
<filter id="filter1_d" x="0" y="-28" width="166" height="166" filterUnits="userSpaceOnUse" color-interpolation-filters="sRGB">
<feFlood flood-opacity="0" result="BackgroundImageFix"/>
<feColorMatrix in="SourceAlpha" type="matrix" values="0 0 0 0 0 0 0 0 0 0 0 0 0 0 0 0 0 0 127 0"/>
<feOffset dx="15" dy="15"/>
<feGaussianBlur stdDeviation="27"/>
<feColorMatrix type="matrix" values="0 0 0 0 0 0 0 0 0 0 0 0 0 0 0 0 0 0 0.25 0"/>
<feBlend mode="normal" in2="BackgroundImageFix" result="effect1_dropShadow"/>
<feBlend mode="normal" in="SourceGraphic" in2="effect1_dropShadow" result="shape"/>
</filter>
</defs>
</svg>
