<svg width="22" height="20" viewBox="0 0 22 20" fill="none" xmlns="http://www.w3.org/2000/svg">
<path d="M4.4 0.200195C3.19 0.200195 2.2 1.1902 2.2 2.4002C2.2 3.11863 2.5575 3.75801 3.09375 4.1602H0.88C0.39875 4.1602 0 4.55895 0 5.0402V9.0002C0 9.48145 0.39875 9.8802 0.88 9.8802H1.76V19.5602C1.76 19.8025 1.95766 20.0002 2.2 20.0002H4.4C4.64234 20.0002 4.84 19.8025 4.84 19.5602V17.3602H17.16V19.5602C17.16 19.8025 17.3577 20.0002 17.6 20.0002H19.8C20.0423 20.0002 20.24 19.8025 20.24 19.5602V9.8802H21.12C21.6012 9.8802 22 9.48145 22 9.0002V5.0677C22 5.0591 22 5.04879 22 5.0402C22 4.55895 21.6012 4.1602 21.12 4.1602H18.9062C19.4425 3.75801 19.8 3.11863 19.8 2.4002C19.8 1.1902 18.81 0.200195 17.6 0.200195C16.39 0.200195 15.4 1.1902 15.4 2.4002C15.4 3.11863 15.7575 3.75801 16.2938 4.1602H5.70625C6.2425 3.75801 6.6 3.11863 6.6 2.4002C6.6 1.1902 5.61 0.200195 4.4 0.200195ZM4.4 1.0802C5.13391 1.0802 5.72 1.66629 5.72 2.4002C5.72 3.1341 5.13391 3.7202 4.4 3.7202C3.66609 3.7202 3.08 3.1341 3.08 2.4002C3.08 1.66629 3.66609 1.0802 4.4 1.0802ZM17.6 1.0802C18.3339 1.0802 18.92 1.66629 18.92 2.4002C18.92 3.1341 18.3339 3.7202 17.6 3.7202C16.8661 3.7202 16.28 3.1341 16.28 2.4002C16.28 1.66629 16.8661 1.0802 17.6 1.0802ZM0.88 5.0402H2.57125L0.88 7.85895V5.0402ZM3.58875 5.0402H5.65125L3.28625 9.0002H1.22375L3.58875 5.0402ZM6.66875 5.0402H8.73125L6.36625 9.0002H4.29L6.66875 5.0402ZM9.74875 5.0402H11.8112L9.44625 9.0002H7.37L9.74875 5.0402ZM12.8287 5.0402H14.8912L12.5262 9.0002H10.45L12.8287 5.0402ZM15.9087 5.0402H17.9713L15.6062 9.0002H13.53L15.9087 5.0402ZM18.9888 5.0402H21.0513L18.6863 9.0002H16.61L18.9888 5.0402ZM21.12 6.6352V9.0002H19.69L21.12 6.6352ZM2.64 9.8802H3.23125C3.38078 9.9816 3.57672 9.9816 3.72625 9.8802H3.96V15.0777C3.95656 15.1052 3.95656 15.1327 3.96 15.1602V16.9202C3.96 16.9339 3.96 16.9477 3.96 16.9614V19.1202H2.64V9.8802ZM4.84 9.8802H6.31125C6.46078 9.9816 6.65672 9.9816 6.80625 9.8802H9.39125C9.54078 9.9816 9.73672 9.9816 9.88625 9.8802H12.4712C12.6208 9.9816 12.8167 9.9816 12.9662 9.8802H15.5512C15.7008 9.9816 15.8967 9.9816 16.0462 9.8802H17.16V14.7202H4.84V9.8802ZM18.04 9.8802H18.6313C18.7808 9.9816 18.9767 9.9816 19.1262 9.8802H19.36V19.1202H18.04V16.9889C18.0417 16.9666 18.0417 16.9425 18.04 16.9202V15.1602C18.04 15.1464 18.04 15.1327 18.04 15.1189V9.8802ZM4.84 15.6002H17.16V16.4802H4.84V15.6002Z" fill="#FB0A2A"/>
</svg>
