<svg width="22" height="19" viewBox="0 0 22 19" fill="none" xmlns="http://www.w3.org/2000/svg">
<path d="M10.998 0.319824C10.5735 0.319824 10.1489 0.532949 9.91176 0.938574L1.07051 16.2973C0.563477 17.1825 1.21316 18.3598 2.23926 18.3186C2.24957 18.3186 2.25645 18.3186 2.26676 18.3186H19.7155C20.7743 18.3186 21.436 17.1498 20.9255 16.2561V16.2423L12.0843 0.938574C11.8471 0.532949 11.4225 0.319824 10.998 0.319824ZM10.998 1.19982C11.12 1.19982 11.2421 1.26342 11.3143 1.37857L20.1693 16.6823C20.3618 17.0209 20.1521 17.4386 19.7155 17.4386H2.21176C1.85254 17.4609 1.64801 17.0725 1.82676 16.7373C1.82848 16.7322 1.82332 16.7287 1.82676 16.7236L10.6818 1.37857C10.7539 1.26342 10.876 1.19982 10.998 1.19982ZM11.5205 6.91982C11.0582 6.91982 10.6955 7.29623 10.6955 7.75857C10.6955 8.22092 11.0582 8.59732 11.5205 8.59732C11.9829 8.59732 12.3593 8.22092 12.3593 7.75857C12.3593 7.29623 11.9829 6.91982 11.5205 6.91982ZM10.2005 8.59732C10.2005 8.59732 9.02316 8.63514 8.93551 8.67982C8.80316 8.67982 8.7602 8.71764 8.71551 8.76232C8.67082 8.80701 7.47801 10.0823 7.47801 10.0823C7.36801 10.1923 7.35426 10.3109 7.38176 10.3986C7.3216 10.61 7.42816 10.8334 7.62926 10.9211L8.30301 11.2511C8.27207 11.3456 8.2377 11.447 8.22051 11.4986C8.17582 11.6309 7.2202 14.9722 7.17551 15.0598C7.13082 15.1475 7.08441 15.5875 7.43676 15.7198C7.83207 15.8522 7.95926 15.3623 7.95926 15.3623L9.01801 12.5986L9.98051 13.4786L10.2005 15.2798C10.2005 15.2798 10.2057 15.7198 10.558 15.7198C10.9104 15.7198 10.9155 15.505 10.9155 15.1973C10.9155 14.9326 10.8605 13.69 10.8605 13.6023C10.8605 13.5147 10.8227 13.3875 10.778 13.2998C10.7041 13.152 10.326 12.4439 10.1868 12.1861L12.6343 13.3961C12.6085 13.4201 12.593 13.4356 12.593 13.4373C12.4899 13.4425 12.3799 13.4614 12.263 13.5061C12.1307 13.5576 11.976 13.6831 11.8918 13.8636L11.878 13.8498L11.0393 15.5273C10.9722 15.6648 10.9808 15.8264 11.0633 15.9553C11.1441 16.0825 11.285 16.1615 11.438 16.1598H15.838C15.991 16.1615 16.1319 16.0825 16.2127 15.9553C16.2952 15.8264 16.3038 15.6648 16.2368 15.5273C16.2368 15.5273 15.9222 14.8879 15.6043 14.2073C15.4444 13.867 15.2914 13.5095 15.1643 13.2311C15.0371 12.9526 14.9236 12.7017 14.9305 12.7223C14.9271 12.7086 14.9219 12.6948 14.9168 12.6811C14.7466 12.284 14.5025 11.9798 14.078 11.9798C13.9904 11.9798 13.6879 12.0348 13.5143 12.1998C13.3991 12.3098 13.2822 12.4765 13.143 12.6811L12.0155 12.1173C11.8935 11.5742 11.5755 9.73857 11.5755 9.73857C11.5308 9.60623 11.4827 9.50998 11.438 9.42233C11.438 9.42233 11.3005 9.20576 10.8605 8.94107C10.4652 8.67639 10.2882 8.59732 10.2005 8.59732ZM8.97676 9.51857H9.41676L8.74301 10.4948L8.24801 10.2473L8.97676 9.51857ZM10.9155 10.4811C10.9929 10.8145 11.0994 11.3147 11.2043 11.7186L10.3655 11.3061L10.9155 10.4811ZM14.0505 12.9423C14.0711 12.9698 14.0935 12.9784 14.1193 13.0386C14.1708 13.183 14.2464 13.3376 14.3668 13.6023C14.4957 13.8859 14.6469 14.2365 14.8068 14.5786C14.9752 14.9378 15.0182 15.0289 15.1368 15.2798H12.153L12.6343 14.3173C12.6497 14.3156 12.6532 14.3173 12.6755 14.3173C12.9832 14.3173 13.1413 14.1472 13.2805 14.0011C13.4197 13.855 13.5469 13.6831 13.6655 13.4923H13.6518C13.8718 13.1434 13.9835 13.0197 14.0505 12.9423Z" fill="#FB0A2A"/>
</svg>
