<svg width="22" height="16" viewBox="0 0 22 16" fill="none" xmlns="http://www.w3.org/2000/svg">
<path d="M14.08 0.0800781C13.5991 0.0800781 13.2 0.479131 13.2 0.960078V11.5201H11.88V1.40008C11.88 1.28339 11.8336 1.17148 11.7511 1.08896C11.6686 1.00645 11.5567 0.96009 11.44 0.960078H5.28C5.16331 0.96009 5.0514 1.00645 4.96889 1.08896C4.88637 1.17148 4.84001 1.28339 4.84 1.40008V11.5201H3.52V1.40008C3.51999 1.28339 3.47363 1.17148 3.39111 1.08896C3.3086 1.00645 3.19669 0.96009 3.08 0.960078H0V1.84008H2.64V13.2801H2.15531C1.94988 12.2793 1.05915 11.5201 0 11.5201V12.4001C0.734133 12.4001 1.32 12.9859 1.32 13.7201C1.32 14.4542 0.734133 15.0401 0 15.0401V15.9201C1.05915 15.9201 1.94988 15.1609 2.15531 14.1601H3.08C3.19669 14.1601 3.3086 14.1137 3.39111 14.0312C3.47363 13.9487 3.51999 13.8368 3.52 13.7201V12.4001H4.84V13.7201C4.84001 13.8368 4.88637 13.9487 4.96889 14.0312C5.0514 14.1137 5.16331 14.1601 5.28 14.1601H6.20297C6.27445 14.5458 6.43936 14.9168 6.71086 15.2223C7.08483 15.643 7.66333 15.9201 8.36 15.9201C9.05667 15.9201 9.63517 15.643 10.0091 15.2223C10.2806 14.9168 10.4456 14.5458 10.517 14.1601H11.44C11.5567 14.1601 11.6686 14.1137 11.7511 14.0312C11.8336 13.9487 11.88 13.8368 11.88 13.7201V12.4001H13.2V13.2801C13.2 13.761 13.5991 14.1601 14.08 14.1601H15.443C15.5144 14.5458 15.6794 14.9168 15.9509 15.2223C16.3248 15.643 16.9033 15.9201 17.6 15.9201C18.2967 15.9201 18.8752 15.643 19.2491 15.2223C19.5206 14.9168 19.6856 14.5458 19.757 14.1601H21.12C21.6009 14.1601 22 13.761 22 13.2801V6.51508C22 6.24663 21.9179 5.98392 21.7645 5.76312L18.2239 0.648984C17.9777 0.292596 17.5711 0.0800781 17.1385 0.0800781H15.84H14.08ZM14.08 0.960078H15.4V6.68008C15.4 6.79677 15.4464 6.90868 15.5289 6.99119C15.6114 7.07371 15.7233 7.12007 15.84 7.12008H21.12V13.2801H19.757C19.6856 12.8943 19.5206 12.5233 19.2491 12.2179C18.8752 11.7972 18.2967 11.5201 17.6 11.5201C16.9033 11.5201 16.3248 11.7972 15.9509 12.2179C15.6794 12.5233 15.5144 12.8943 15.443 13.2801H14.08V0.960078ZM16.28 0.960078H17.1385C17.2832 0.960078 17.4182 1.03033 17.5003 1.14914C17.5003 1.14943 17.5003 1.14971 17.5003 1.15L21.0246 6.24008H16.28V0.960078ZM5.72 1.84008H11V13.2801H10.517C10.4456 12.8943 10.2806 12.5233 10.0091 12.2179C9.63517 11.7972 9.05667 11.5201 8.36 11.5201C7.66333 11.5201 7.08483 11.7972 6.71086 12.2179C6.43936 12.5233 6.27445 12.8943 6.20297 13.2801H5.72V1.84008ZM8.36 12.4001C8.83667 12.4001 9.13817 12.563 9.35086 12.8023C9.56355 13.0415 9.68 13.3779 9.68 13.7201C9.68 14.0623 9.56355 14.3986 9.35086 14.6379C9.13817 14.8772 8.83667 15.0401 8.36 15.0401C7.88333 15.0401 7.58183 14.8772 7.36914 14.6379C7.15645 14.3986 7.04 14.0623 7.04 13.7201C7.04 13.3779 7.15645 13.0415 7.36914 12.8023C7.58183 12.563 7.88333 12.4001 8.36 12.4001ZM17.6 12.4001C18.0767 12.4001 18.3782 12.563 18.5909 12.8023C18.8036 13.0415 18.92 13.3779 18.92 13.7201C18.92 14.0623 18.8036 14.3986 18.5909 14.6379C18.3782 14.8772 18.0767 15.0401 17.6 15.0401C17.1233 15.0401 16.8218 14.8772 16.6091 14.6379C16.3964 14.3986 16.28 14.0623 16.28 13.7201C16.28 13.3779 16.3964 13.0415 16.6091 12.8023C16.8218 12.563 17.1233 12.4001 17.6 12.4001Z" fill="#FB0A2A"/>
</svg>
