<svg width="20" height="22" viewBox="0 0 20 22" fill="none" xmlns="http://www.w3.org/2000/svg">
<path d="M9.95895 0.426304C9.94004 0.429742 9.92113 0.434898 9.90395 0.440054C9.69942 0.48646 9.55504 0.670367 9.5602 0.880054V2.64005C9.55848 2.79818 9.64098 2.94599 9.77848 3.02677C9.91598 3.10584 10.0844 3.10584 10.2219 3.02677C10.3594 2.94599 10.4419 2.79818 10.4402 2.64005V0.880054C10.4454 0.752867 10.3938 0.630835 10.3027 0.544898C10.2099 0.457242 10.0844 0.414273 9.95895 0.426304ZM3.41395 3.13505C3.4002 3.13849 3.38645 3.14365 3.3727 3.1488C3.21457 3.18146 3.08738 3.30005 3.04098 3.45474C2.99457 3.60943 3.03754 3.77787 3.1527 3.8913L4.40395 5.14255C4.51051 5.27318 4.68066 5.33334 4.84566 5.29552C5.00895 5.25771 5.13785 5.1288 5.17566 4.96552C5.21348 4.80052 5.15332 4.63037 5.0227 4.5238L3.77145 3.27255C3.68895 3.1849 3.57551 3.13677 3.4552 3.13505C3.44145 3.13505 3.4277 3.13505 3.41395 3.13505ZM16.4902 3.13505C16.4713 3.13849 16.4524 3.14365 16.4352 3.1488C16.3561 3.16943 16.2857 3.2124 16.2289 3.27255L14.9777 4.5238C14.8471 4.63037 14.7869 4.80052 14.8247 4.96552C14.8625 5.1288 14.9914 5.25771 15.1547 5.29552C15.3197 5.33334 15.4899 5.27318 15.5964 5.14255L16.8477 3.8913C16.9852 3.76068 17.0247 3.55615 16.9439 3.38427C16.8614 3.21068 16.6793 3.11099 16.4902 3.13505ZM10.0002 3.96005C6.60395 3.96005 3.8402 6.7238 3.8402 10.1201C3.8402 12.2719 4.80441 13.7174 5.7102 14.7813C6.16395 15.3124 6.60223 15.7627 6.90645 16.1563C7.21066 16.5499 7.3602 16.8644 7.3602 17.1601V18.7138C7.30176 18.8358 7.30176 18.9768 7.3602 19.0988V19.3601C7.3602 20.0836 7.9566 20.6801 8.6802 20.6801H9.02395C9.26629 20.9482 9.61176 21.1201 10.0002 21.1201C10.3886 21.1201 10.7341 20.9482 10.9764 20.6801H11.3202C12.0438 20.6801 12.6402 20.0836 12.6402 19.3601V19.0026C12.6522 18.9441 12.6522 18.8822 12.6402 18.8238V17.1601C12.6402 16.8644 12.7897 16.5465 13.0939 16.1563C13.3982 15.7661 13.8364 15.3244 14.2902 14.7951C15.196 13.7363 16.1602 12.2908 16.1602 10.1201C16.1602 6.7238 13.3964 3.96005 10.0002 3.96005ZM10.0002 4.84005C12.9221 4.84005 15.2802 7.19818 15.2802 10.1201C15.2802 12.0382 14.4844 13.2344 13.6302 14.2313C13.2039 14.7297 12.7622 15.1646 12.4064 15.6201C12.1452 15.9552 11.9579 16.3213 11.8564 16.7201H8.14395C8.04254 16.3213 7.8552 15.9569 7.59395 15.6201C7.23816 15.1611 6.79645 14.7194 6.3702 14.2176C5.51598 13.2155 4.7202 12.0176 4.7202 10.1201C4.7202 7.19818 7.07832 4.84005 10.0002 4.84005ZM0.636446 9.68005C0.394102 9.71443 0.223946 9.93958 0.258321 10.1819C0.292696 10.4243 0.517852 10.5944 0.760196 10.5601H2.5202C2.67832 10.5618 2.82613 10.4793 2.90691 10.3418C2.98598 10.2043 2.98598 10.0358 2.90691 9.89833C2.82613 9.76083 2.67832 9.67834 2.5202 9.68005H0.760196C0.746446 9.68005 0.732696 9.68005 0.718946 9.68005C0.705196 9.68005 0.691446 9.68005 0.677696 9.68005C0.663946 9.68005 0.650196 9.68005 0.636446 9.68005ZM17.3564 9.68005C17.1141 9.71443 16.9439 9.93958 16.9783 10.1819C17.0127 10.4243 17.2379 10.5944 17.4802 10.5601H19.2402C19.3983 10.5618 19.5461 10.4793 19.6269 10.3418C19.706 10.2043 19.706 10.0358 19.6269 9.89833C19.5461 9.76083 19.3983 9.67834 19.2402 9.68005H17.4802C17.4664 9.68005 17.4527 9.68005 17.4389 9.68005C17.4252 9.68005 17.4114 9.68005 17.3977 9.68005C17.3839 9.68005 17.3702 9.68005 17.3564 9.68005ZM4.6652 14.9601C4.56551 14.9738 4.4727 15.0236 4.40395 15.0976L3.1527 16.3488C3.02207 16.4554 2.96191 16.6255 2.99973 16.7905C3.03754 16.9538 3.16645 17.0827 3.32973 17.1205C3.49473 17.1583 3.66488 17.0982 3.77145 16.9676L5.0227 15.7163C5.15332 15.5908 5.19285 15.3966 5.12238 15.2299C5.05363 15.0632 4.88691 14.9566 4.70645 14.9601C4.6927 14.9601 4.67895 14.9601 4.6652 14.9601ZM15.1977 14.9601C15.0327 14.9893 14.9004 15.1096 14.8539 15.2694C14.8075 15.431 14.8557 15.6029 14.9777 15.7163L16.2289 16.9676C16.3355 17.0982 16.5057 17.1583 16.6707 17.1205C16.8339 17.0827 16.9629 16.9538 17.0007 16.7905C17.0385 16.6255 16.9783 16.4554 16.8477 16.3488L15.5964 15.0976C15.5139 15.0099 15.4005 14.9618 15.2802 14.9601C15.2664 14.9601 15.2527 14.9601 15.2389 14.9601C15.2252 14.9601 15.2114 14.9601 15.1977 14.9601ZM8.2402 17.6001H11.7602V18.4801H9.5602C9.54645 18.4801 9.5327 18.4801 9.51895 18.4801C9.5052 18.4801 9.49145 18.4801 9.4777 18.4801C9.23535 18.5024 9.0566 18.719 9.07895 18.9613C9.10129 19.2036 9.31785 19.3824 9.5602 19.3601H11.7602C11.7602 19.6093 11.5694 19.8001 11.3202 19.8001H8.6802C8.43098 19.8001 8.2402 19.6093 8.2402 19.3601C8.39832 19.3618 8.54613 19.2793 8.62691 19.1418C8.70598 19.0043 8.70598 18.8358 8.62691 18.6983C8.54613 18.5608 8.39832 18.4783 8.2402 18.4801V17.6001Z" fill="#FB0A2A"/>
</svg>
