<svg width="18" height="22" viewBox="0 0 18 22" fill="none" xmlns="http://www.w3.org/2000/svg">
<path d="M5.03989 0.879883C3.83161 0.879883 2.83989 1.8716 2.83989 3.07988H1.47864C0.969889 3.07988 0.553951 3.54566 0.653639 4.04238V4.08363L0.667389 4.12488C1.25348 5.63051 2.50473 6.89551 2.83989 7.21863V8.79988H1.43739C1.18301 8.79988 0.932076 8.90816 0.777389 9.10238C0.622701 9.2966 0.567701 9.59395 0.667389 9.84488C1.25348 11.3505 2.50473 12.6155 2.83989 12.9386V14.5199H1.43739C1.18301 14.5199 0.932076 14.6282 0.777389 14.8224C0.622701 15.0166 0.567701 15.3139 0.667389 15.5649C1.25348 17.0705 2.50473 18.3355 2.83989 18.6586V18.9199C2.83989 20.1282 3.83161 21.1199 5.03989 21.1199H12.9599C14.1682 21.1199 15.1599 20.1282 15.1599 18.9199V18.6586C15.495 18.3355 16.7463 17.0705 17.3324 15.5649C17.4321 15.3139 17.3771 15.0166 17.2224 14.8224C17.0677 14.6282 16.8168 14.5199 16.5624 14.5199H15.1599V12.9386C15.495 12.6155 16.7463 11.3505 17.3324 9.84488C17.4321 9.59395 17.3771 9.2966 17.2224 9.10238C17.0677 8.90816 16.8168 8.79988 16.5624 8.79988H15.1599V7.21863C15.495 6.89551 16.7463 5.63051 17.3324 4.12488C17.4321 3.87395 17.3771 3.5766 17.2224 3.38238C17.0677 3.18816 16.8168 3.07988 16.5624 3.07988H15.1599C15.1599 1.8716 14.1682 0.879883 12.9599 0.879883H5.03989ZM5.03989 1.75988H12.9599C13.6886 1.75988 14.2799 2.35113 14.2799 3.07988V18.9199C14.2799 19.6486 13.6886 20.2399 12.9599 20.2399H5.03989C4.31114 20.2399 3.71989 19.6486 3.71989 18.9199V3.07988C3.71989 2.35113 4.31114 1.75988 5.03989 1.75988ZM8.99989 3.07988C7.78989 3.07988 6.79989 4.06988 6.79989 5.27988C6.79989 6.48988 7.78989 7.47988 8.99989 7.47988C10.2099 7.47988 11.1999 6.48988 11.1999 5.27988C11.1999 4.06988 10.2099 3.07988 8.99989 3.07988ZM1.58864 3.95988H2.83989V5.88488C2.41192 5.36238 1.89973 4.66457 1.58864 3.95988ZM8.99989 3.95988C9.73379 3.95988 10.3199 4.54598 10.3199 5.27988C10.3199 6.01379 9.73379 6.59988 8.99989 6.59988C8.26598 6.59988 7.67989 6.01379 7.67989 5.27988C7.67989 4.54598 8.26598 3.95988 8.99989 3.95988ZM15.1599 3.95988H16.4111C16.1 4.66457 15.5879 5.36238 15.1599 5.88488V3.95988ZM8.99989 8.79988C7.78989 8.79988 6.79989 9.78988 6.79989 10.9999C6.79989 12.2099 7.78989 13.1999 8.99989 13.1999C10.2099 13.1999 11.1999 12.2099 11.1999 10.9999C11.1999 9.78988 10.2099 8.79988 8.99989 8.79988ZM1.58864 9.67988H2.83989V11.6049C2.41192 11.0824 1.89973 10.3846 1.58864 9.67988ZM8.99989 9.67988C9.73379 9.67988 10.3199 10.266 10.3199 10.9999C10.3199 11.7338 9.73379 12.3199 8.99989 12.3199C8.26598 12.3199 7.67989 11.7338 7.67989 10.9999C7.67989 10.266 8.26598 9.67988 8.99989 9.67988ZM15.1599 9.67988H16.4111C16.1 10.3846 15.5879 11.0824 15.1599 11.6049V9.67988ZM8.99989 14.5199C7.78989 14.5199 6.79989 15.5099 6.79989 16.7199C6.79989 17.9299 7.78989 18.9199 8.99989 18.9199C10.2099 18.9199 11.1999 17.9299 11.1999 16.7199C11.1999 15.5099 10.2099 14.5199 8.99989 14.5199ZM1.58864 15.3999H2.83989V17.3249C2.41192 16.8024 1.89973 16.1046 1.58864 15.3999ZM8.99989 15.3999C9.73379 15.3999 10.3199 15.986 10.3199 16.7199C10.3199 17.4538 9.73379 18.0399 8.99989 18.0399C8.26598 18.0399 7.67989 17.4538 7.67989 16.7199C7.67989 15.986 8.26598 15.3999 8.99989 15.3999ZM15.1599 15.3999H16.4111C16.1 16.1046 15.5879 16.8024 15.1599 17.3249V15.3999Z" fill="#FB0A2A"/>
</svg>
