<svg width="22" height="20" viewBox="0 0 22 20" fill="none" xmlns="http://www.w3.org/2000/svg">
<path d="M10.9853 0.894874C10.9126 0.897831 10.8419 0.91937 10.7799 0.957434C10.7179 0.995497 10.6668 1.04882 10.6312 1.1123L0.511241 19.1523C0.474995 19.217 0.456314 19.2902 0.457052 19.3644C0.45779 19.4386 0.477922 19.5113 0.515449 19.5753C0.552976 19.6393 0.606593 19.6924 0.670979 19.7293C0.735365 19.7662 0.808282 19.7856 0.882491 19.7857H21.1225C21.1967 19.7856 21.2696 19.7662 21.334 19.7293C21.3984 19.6924 21.452 19.6393 21.4895 19.5753C21.5271 19.5113 21.5472 19.4386 21.5479 19.3644C21.5487 19.2902 21.53 19.217 21.4937 19.1523L11.3737 1.1123C11.3354 1.04373 11.2788 0.987117 11.2102 0.948741C11.1417 0.910365 11.0638 0.89172 10.9853 0.894874ZM11.0025 2.18995L20.3963 18.9349H1.60866L11.0025 2.18995ZM7.92249 13.2003C7.33582 13.2003 6.88288 13.5077 6.5664 13.8242C6.24991 14.1407 6.01954 14.481 5.8514 14.6492C5.68325 14.8173 5.52762 14.8912 5.41827 14.9276C5.30893 14.9641 5.28249 14.9603 5.28249 14.9603C5.1658 14.9603 5.05389 15.0066 4.97138 15.0891C4.88886 15.1717 4.8425 15.2836 4.84249 15.4003V17.6003C4.8425 17.717 4.88886 17.8289 4.97138 17.9114C5.05389 17.9939 5.1658 18.0403 5.28249 18.0403H16.7225C16.8392 18.0403 16.9511 17.9939 17.0336 17.9114C17.1161 17.8289 17.1625 17.717 17.1625 17.6003V15.4003C17.1625 15.2836 17.1161 15.1717 17.0336 15.0891C16.9511 15.0066 16.8392 14.9603 16.7225 14.9603C16.7225 14.9603 16.6961 14.964 16.5867 14.9276C16.4774 14.8912 16.3217 14.8173 16.1536 14.6492C15.9854 14.481 15.7551 14.1407 15.4386 13.8242C15.1221 13.5077 14.6692 13.2003 14.0825 13.2003C13.2269 13.2003 12.6714 13.7692 12.2314 14.2092C11.7914 14.6492 11.4669 14.9603 11.0025 14.9603C10.538 14.9603 10.2136 14.6492 9.77358 14.2092C9.33358 13.7692 8.77805 13.2003 7.92249 13.2003ZM7.92249 14.0803C8.38693 14.0803 8.7114 14.3914 9.1514 14.8314C9.5914 15.2714 10.1469 15.8403 11.0025 15.8403C11.858 15.8403 12.4136 15.2714 12.8536 14.8314C13.2936 14.3914 13.618 14.0803 14.0825 14.0803C14.3758 14.0803 14.5829 14.2128 14.8164 14.4464C15.0499 14.6799 15.2595 14.9995 15.5314 15.2714C15.7942 15.5342 16.0651 15.6708 16.2825 15.7466V17.1603H5.72249V15.7466C5.93984 15.6708 6.21075 15.5342 6.47358 15.2714C6.74544 14.9995 6.95507 14.6799 7.18858 14.4464C7.4221 14.2128 7.62916 14.0803 7.92249 14.0803Z" fill="#FB0A2A"/>
</svg>
