<svg width="20" height="20" viewBox="0 0 20 20" fill="none" xmlns="http://www.w3.org/2000/svg">
<path d="M2.08172 0.759766C1.35793 0.759766 0.761719 1.35598 0.761719 2.07977V17.9739C0.761719 18.6977 1.35793 19.2939 2.08172 19.2939L12.799 19.2948C15.4007 19.2948 17.443 19.2956 17.443 19.2956C17.5294 19.2956 17.6139 19.2702 17.686 19.2224C17.758 19.1747 17.8144 19.1069 17.8481 19.0273C17.8818 18.9478 17.8914 18.8601 17.8756 18.7751C17.8598 18.6902 17.8194 18.6118 17.7593 18.5497L15.0273 15.7232C14.9683 15.6618 14.8926 15.6189 14.8097 15.5997C14.7267 15.5805 14.6399 15.5858 14.5598 15.6149C14.2849 15.7151 13.979 15.7489 13.6515 15.694C12.9357 15.5733 12.3388 14.9687 12.2249 14.2511C12.0323 13.0355 13.0329 12.0327 14.2479 12.2221C14.9673 12.3343 15.5737 12.9318 15.6951 13.6487C15.7506 13.9756 15.7168 14.2831 15.6169 14.5596C15.5885 14.6383 15.5832 14.7233 15.6014 14.8049C15.6197 14.8865 15.6608 14.9612 15.72 15.0202C15.6967 14.997 15.7674 15.0694 15.8455 15.15C15.9235 15.2306 16.0327 15.3431 16.1626 15.4774C16.4224 15.7461 16.765 16.1007 17.1062 16.4537C17.7885 17.1596 18.4657 17.8596 18.4657 17.8596C18.5266 17.9225 18.6049 17.9659 18.6905 17.984C18.7762 18.0022 18.8653 17.9944 18.9465 17.9617C19.0277 17.9289 19.0973 17.8727 19.1464 17.8001C19.1955 17.7276 19.2218 17.6421 19.222 17.5545L19.2211 2.08062C19.2211 1.35706 18.6251 0.760625 17.9011 0.760625L12.182 0.759766C12.124 0.759776 12.0666 0.771246 12.013 0.793516C11.9595 0.815785 11.9109 0.848416 11.87 0.889531L7.79914 4.98016C7.74012 5.0393 7.69916 5.11403 7.68105 5.1956C7.66294 5.27717 7.66843 5.36221 7.69688 5.44078C7.79688 5.71623 7.83032 6.02336 7.77508 6.35086C7.65404 7.06701 7.04857 7.66376 6.33047 7.77656C5.11565 7.96775 4.11468 6.96791 4.30406 5.75359C4.41618 5.0347 5.01385 4.42778 5.73063 4.30641C6.05751 4.25091 6.36479 4.28479 6.6407 4.38461C6.71908 4.41298 6.80389 4.41852 6.88529 4.40057C6.96668 4.38261 7.0413 4.34191 7.10047 4.2832C7.14058 4.2435 7.29082 4.09121 7.55078 3.82945C7.81075 3.56769 8.15312 3.22269 8.49437 2.87898C9.17688 2.19158 9.85391 1.51 9.85391 1.51C9.91516 1.44836 9.9568 1.36996 9.97356 1.28469C9.99033 1.19942 9.98147 1.1111 9.9481 1.03086C9.91474 0.950618 9.85836 0.882052 9.78608 0.833807C9.7138 0.785563 9.62885 0.759799 9.54195 0.759766H2.08172ZM2.08172 1.63977H8.48492C8.24058 1.88589 8.1783 1.94847 7.86961 2.25937C7.52837 2.60306 7.18593 2.94814 6.92602 3.20984C6.7414 3.39573 6.67819 3.45896 6.60977 3.52781C6.27921 3.4529 5.94402 3.37726 5.58367 3.43844C4.48149 3.62507 3.60649 4.51423 3.43438 5.61781C3.15823 7.38845 4.69609 8.92498 6.46711 8.64625C7.56973 8.47305 8.45696 7.598 8.64305 6.49695C8.70384 6.13652 8.62818 5.80109 8.55281 5.47L12.365 1.63977L17.9011 1.64062C18.1494 1.64062 18.3411 1.83267 18.3411 2.08062L18.342 16.4657C18.1 16.2153 18.0414 16.155 17.7387 15.8418C17.3975 15.4888 17.055 15.1343 16.7951 14.8655C16.6651 14.7312 16.5562 14.6181 16.478 14.5373C16.475 14.5342 16.4756 14.535 16.4728 14.5321C16.5485 14.2002 16.6245 13.8636 16.563 13.5017C16.3764 12.3997 15.4877 11.5245 14.3837 11.3524C12.612 11.0763 11.0753 12.6166 11.3561 14.3886C11.5309 15.4899 12.4048 16.3755 13.5054 16.5611C13.5054 16.5614 13.5054 16.5617 13.5054 16.562C13.863 16.6219 14.1969 16.5461 14.5263 16.4717L16.4066 18.4156C15.7559 18.4155 14.8201 18.4148 12.799 18.4148L2.08172 18.4139C1.83311 18.4139 1.64172 18.2225 1.64172 17.9739V2.07977C1.64172 1.83115 1.83311 1.63977 2.08172 1.63977ZM13.9617 3.39977C12.509 3.39977 11.3217 4.58705 11.3217 6.03977C11.3217 6.24682 11.38 6.43855 11.4257 6.63359L6.63555 11.4237C6.44067 11.3779 6.24957 11.3198 6.04172 11.3198C4.589 11.3198 3.40172 12.507 3.40172 13.9598C3.40172 15.4125 4.589 16.5998 6.04172 16.5998C7.49443 16.5998 8.68172 15.4125 8.68172 13.9598C8.68172 13.7522 8.62328 13.5612 8.57773 13.3668L13.3679 8.57664C13.5626 8.62204 13.7535 8.67977 13.9617 8.67977C15.4144 8.67977 16.6017 7.49248 16.6017 6.03977C16.6017 4.58705 15.4144 3.39977 13.9617 3.39977ZM13.9617 4.27977C14.9387 4.27977 15.7217 5.0628 15.7217 6.03977C15.7217 7.01673 14.9387 7.79977 13.9617 7.79977C13.7501 7.79977 13.5482 7.76311 13.3593 7.69578C13.281 7.66797 13.1964 7.6629 13.1154 7.68115C13.0343 7.6994 12.9601 7.74023 12.9012 7.79891L7.8 12.9002C7.74083 12.9592 7.69971 13.0339 7.68145 13.1155C7.66319 13.197 7.66854 13.2821 7.69688 13.3608C7.76438 13.5475 7.80172 13.7481 7.80172 13.9598C7.80172 14.9367 7.01868 15.7198 6.04172 15.7198C5.06475 15.7198 4.28172 14.9367 4.28172 13.9598C4.28172 12.9828 5.06475 12.1998 6.04172 12.1998C6.25333 12.1998 6.45442 12.2369 6.6407 12.3046C6.71927 12.3331 6.80431 12.3385 6.88588 12.3204C6.96745 12.3023 7.04218 12.2614 7.10133 12.2023L12.2034 7.10023C12.2626 7.04118 12.3037 6.96649 12.322 6.88492C12.3403 6.80334 12.3349 6.71825 12.3066 6.63961C12.2387 6.45176 12.2017 6.25082 12.2017 6.03977C12.2017 5.0628 12.9848 4.27977 13.9617 4.27977ZM6.04172 5.15977C5.80833 5.15977 5.5845 5.25248 5.41947 5.41751C5.25443 5.58254 5.16172 5.80637 5.16172 6.03977C5.16172 6.27316 5.25443 6.49699 5.41947 6.66202C5.5845 6.82705 5.80833 6.91976 6.04172 6.91976C6.27511 6.91976 6.49894 6.82705 6.66397 6.66202C6.829 6.49699 6.92172 6.27316 6.92172 6.03977C6.92172 5.80637 6.829 5.58254 6.66397 5.41751C6.49894 5.25248 6.27511 5.15977 6.04172 5.15977ZM13.9617 5.15977C13.7283 5.15977 13.5045 5.25248 13.3395 5.41751C13.1744 5.58254 13.0817 5.80637 13.0817 6.03977C13.0817 6.27316 13.1744 6.49699 13.3395 6.66202C13.5045 6.82705 13.7283 6.91976 13.9617 6.91976C14.1951 6.91976 14.4189 6.82705 14.584 6.66202C14.749 6.49699 14.8417 6.27316 14.8417 6.03977C14.8417 5.80637 14.749 5.58254 14.584 5.41751C14.4189 5.25248 14.1951 5.15977 13.9617 5.15977ZM6.04172 13.0798C5.80833 13.0798 5.5845 13.1725 5.41947 13.3375C5.25443 13.5025 5.16172 13.7264 5.16172 13.9598C5.16172 14.1932 5.25443 14.417 5.41947 14.582C5.5845 14.7471 5.80833 14.8398 6.04172 14.8398C6.27511 14.8398 6.49894 14.7471 6.66397 14.582C6.829 14.417 6.92172 14.1932 6.92172 13.9598C6.92172 13.7264 6.829 13.5025 6.66397 13.3375C6.49894 13.1725 6.27511 13.0798 6.04172 13.0798ZM13.9617 13.0798C13.7283 13.0798 13.5045 13.1725 13.3395 13.3375C13.1744 13.5025 13.0817 13.7264 13.0817 13.9598C13.0817 14.1932 13.1744 14.417 13.3395 14.582C13.5045 14.7471 13.7283 14.8398 13.9617 14.8398C14.1951 14.8398 14.4189 14.7471 14.584 14.582C14.749 14.417 14.8417 14.1932 14.8417 13.9598C14.8417 13.7264 14.749 13.5025 14.584 13.3375C14.4189 13.1725 14.1951 13.0798 13.9617 13.0798Z" fill="#FB0A2A"/>
</svg>
