<svg width="22" height="17" viewBox="0 0 22 17" fill="none" xmlns="http://www.w3.org/2000/svg">
<path d="M14.08 0.0801221C13.9865 0.0801821 13.8954 0.110038 13.82 0.165359C13.7446 0.220679 13.6888 0.298587 13.6606 0.387778L12.9241 2.72012H0.44C0.323308 2.72013 0.211399 2.7665 0.128886 2.84901C0.0463724 2.93152 1.16674e-05 3.04343 0 3.16012L0 8.00012C7.2627e-05 8.10125 0.0349741 8.19927 0.0988322 8.27768C0.16269 8.35609 0.251608 8.41012 0.350625 8.43067L4.4 9.27458V10.7037C3.3574 11.2397 2.64 12.3251 2.64 13.574C2.64 15.3508 4.08935 16.8001 5.86609 16.8001C7.59356 16.8001 9.00879 15.4291 9.08617 13.7201H13.6469C13.7242 15.4291 15.1386 16.8001 16.8661 16.8001C18.5936 16.8001 20.0088 15.4291 20.0862 13.7201H21.56C21.6767 13.7201 21.7886 13.6738 21.8711 13.5912C21.9536 13.5087 22 13.3968 22 13.2801V9.32012V8.00012V6.24012C22 6.12343 21.9536 6.01152 21.8711 5.92901C21.7886 5.8465 21.6767 5.80014 21.56 5.80012H18.7971L18.0177 3.4609C17.9884 3.37327 17.9324 3.29707 17.8574 3.24308C17.7824 3.1891 17.6924 3.16007 17.6 3.16012H14.96C14.8433 3.16013 14.7314 3.2065 14.6489 3.28901C14.5664 3.37152 14.52 3.48343 14.52 3.60012V6.24012V8.44012H12.0398L14.4023 0.960122H18.48C18.5383 0.960947 18.5962 0.950175 18.6503 0.928433C18.7044 0.906691 18.7536 0.874412 18.7952 0.833473C18.8367 0.792533 18.8697 0.743749 18.8922 0.689956C18.9147 0.636163 18.9263 0.578433 18.9263 0.520122C18.9263 0.461811 18.9147 0.404082 18.8922 0.350288C18.8697 0.296495 18.8367 0.247711 18.7952 0.206772C18.7536 0.165832 18.7044 0.133553 18.6503 0.111811C18.5962 0.0900693 18.5383 0.0792975 18.48 0.0801221H14.08ZM0.88 3.60012H12.601L10.6992 9.68794L0.88 7.64262V3.60012ZM15.4 4.04012H17.2829L17.869 5.80012H15.4V4.04012ZM2.2 4.92012C2.14169 4.9193 2.08381 4.93007 2.0297 4.95181C1.97559 4.97355 1.92635 5.00583 1.88483 5.04677C1.8433 5.08771 1.81033 5.1365 1.78783 5.19029C1.76532 5.24408 1.75373 5.30181 1.75373 5.36012C1.75373 5.41843 1.76532 5.47616 1.78783 5.52996C1.81033 5.58375 1.8433 5.63253 1.88483 5.67347C1.92635 5.71441 1.97559 5.74669 2.0297 5.76843C2.08381 5.79018 2.14169 5.80095 2.2 5.80012H10.56C10.6183 5.80095 10.6762 5.79018 10.7303 5.76843C10.7844 5.74669 10.8337 5.71441 10.8752 5.67347C10.9167 5.63253 10.9497 5.58375 10.9722 5.52996C10.9947 5.47616 11.0063 5.41843 11.0063 5.36012C11.0063 5.30181 10.9947 5.24408 10.9722 5.19029C10.9497 5.1365 10.9167 5.08771 10.8752 5.04677C10.8337 5.00583 10.7844 4.97355 10.7303 4.95181C10.6762 4.93007 10.6183 4.9193 10.56 4.92012H2.2ZM4.84 6.68012C4.78169 6.6793 4.72381 6.69007 4.6697 6.71181C4.61559 6.73355 4.56635 6.76583 4.52483 6.80677C4.4833 6.84771 4.45033 6.8965 4.42783 6.95029C4.40532 7.00408 4.39373 7.06181 4.39373 7.12012C4.39373 7.17843 4.40532 7.23616 4.42783 7.28996C4.45033 7.34375 4.4833 7.39253 4.52483 7.43347C4.56635 7.47441 4.61559 7.50669 4.6697 7.52843C4.72381 7.55018 4.78169 7.56095 4.84 7.56012H10.12C10.1783 7.56095 10.2362 7.55018 10.2903 7.52843C10.3444 7.50669 10.3937 7.47441 10.4352 7.43347C10.4767 7.39253 10.5097 7.34375 10.5322 7.28996C10.5547 7.23616 10.5663 7.17843 10.5663 7.12012C10.5663 7.06181 10.5547 7.00408 10.5322 6.95029C10.5097 6.8965 10.4767 6.84771 10.4352 6.80677C10.3937 6.76583 10.3444 6.73355 10.2903 6.71181C10.2362 6.69007 10.1783 6.6793 10.12 6.68012H4.84ZM15.4 6.68012H18.48H21.12V8.00012V9.32012V12.8401H20.0054C19.6711 11.4152 18.3902 10.3471 16.8661 10.3471C15.342 10.3471 14.0618 11.4152 13.7277 12.8401H9.00539C8.67105 11.4152 7.39015 10.3471 5.86609 10.3471C5.66577 10.3471 5.47039 10.3685 5.28 10.4038V9.45762L10.9106 10.6307C11.0175 10.6529 11.1289 10.6347 11.2231 10.5794C11.3173 10.5241 11.3875 10.4358 11.4202 10.3316L11.7365 9.32012H12.9439L12.1687 11.5107C12.1478 11.5655 12.1381 11.6239 12.1401 11.6826C12.1421 11.7412 12.1558 11.7989 12.1804 11.8521C12.205 11.9054 12.2401 11.9532 12.2834 11.9927C12.3268 12.0322 12.3776 12.0627 12.4329 12.0823C12.4882 12.1019 12.5469 12.1102 12.6054 12.1068C12.664 12.1034 12.7213 12.0883 12.774 12.0625C12.8266 12.0366 12.8736 12.0004 12.9121 11.9562C12.9505 11.9119 12.9798 11.8603 12.998 11.8046L13.8772 9.32012H14.96H19.8C19.8583 9.32095 19.9162 9.31018 19.9703 9.28843C20.0244 9.26669 20.0737 9.23441 20.1152 9.19347C20.1567 9.15253 20.1897 9.10375 20.2122 9.04996C20.2347 8.99616 20.2463 8.93843 20.2463 8.88012C20.2463 8.82181 20.2347 8.76408 20.2122 8.71029C20.1897 8.6565 20.1567 8.60771 20.1152 8.56677C20.0737 8.52583 20.0244 8.49356 19.9703 8.47181C19.9162 8.45007 19.8583 8.4393 19.8 8.44012H15.4V6.68012ZM5.86609 11.2271C7.16725 11.2271 8.21305 12.2729 8.21305 13.574C8.21305 14.8752 7.16725 15.9201 5.86609 15.9201C4.56493 15.9201 3.52 14.8752 3.52 13.574C3.52 12.2729 4.56493 11.2271 5.86609 11.2271ZM16.8661 11.2271C18.1673 11.2271 19.213 12.2729 19.213 13.574C19.213 14.8752 18.1673 15.9201 16.8661 15.9201C15.5649 15.9201 14.52 14.8752 14.52 13.574C14.52 12.2729 15.5649 11.2271 16.8661 11.2271ZM5.86609 12.4001C5.55537 12.4009 5.25763 12.5249 5.03818 12.7448C4.81873 12.9648 4.69549 13.2629 4.69549 13.5736C4.69549 13.8843 4.81873 14.1824 5.03818 14.4024C5.25763 14.6223 5.55537 14.7463 5.86609 14.7471C6.17682 14.7463 6.47456 14.6223 6.69401 14.4024C6.91346 14.1824 7.0367 13.8843 7.0367 13.5736C7.0367 13.2629 6.91346 12.9648 6.69401 12.7448C6.47456 12.5249 6.17682 12.4009 5.86609 12.4001ZM16.8661 12.4001C16.5554 12.4009 16.2576 12.5249 16.0382 12.7448C15.8187 12.9648 15.6955 13.2629 15.6955 13.5736C15.6955 13.8843 15.8187 14.1824 16.0382 14.4024C16.2576 14.6223 16.5554 14.7463 16.8661 14.7471C17.1768 14.7463 17.4746 14.6223 17.694 14.4024C17.9135 14.1824 18.0367 13.8843 18.0367 13.5736C18.0367 13.2629 17.9135 12.9648 17.694 12.7448C17.4746 12.5249 17.1768 12.4009 16.8661 12.4001Z" fill="#FB0A2A"/>
</svg>
