<svg width="20" height="22" viewBox="0 0 20 22" fill="none" xmlns="http://www.w3.org/2000/svg">
<path d="M10.0017 0.439941C9.71297 0.439941 9.45516 0.458848 9.23172 0.508691C9.12 0.532754 9.01344 0.558535 8.90172 0.618691C8.84672 0.649629 8.78656 0.697754 8.72297 0.769941C8.68344 0.816348 8.66453 0.898848 8.64047 0.976191L8.61297 0.962441C8.46172 1.41447 7.40297 4.86572 6.35797 8.30494C6.18781 8.86697 6.05375 9.3001 5.89047 9.84494L5.84922 9.87244C5.85781 9.88619 5.86812 9.89994 5.87672 9.91369C5.62063 10.7628 5.36109 11.6015 5.14797 12.3199H3.75922C3.36391 12.3199 3.07344 12.5623 2.92047 12.8699L2.90672 12.8974L2.89297 12.9387L0.775469 19.6624L0.761719 19.7312V20.2399C0.761719 20.4703 0.8425 20.7057 1.00922 20.8724C1.17594 21.0392 1.41141 21.1199 1.64172 21.1199H18.3617C18.592 21.1199 18.8275 21.0392 18.9942 20.8724C19.1609 20.7057 19.2417 20.4703 19.2417 20.2399V19.7312L19.228 19.6624L17.1105 12.9662V12.9387H17.0967C16.9867 12.564 16.6292 12.3199 16.2442 12.3199H14.8692C14.6492 11.5774 14.3794 10.7112 14.113 9.83119C13.9497 9.2915 13.8277 8.8601 13.6592 8.30494C13.1384 6.58619 12.6073 4.84682 12.188 3.49244C11.7686 2.13807 11.4867 1.21682 11.3767 0.934941L11.3492 0.948691C11.3252 0.885098 11.3148 0.809473 11.2805 0.769941C11.2169 0.697754 11.1567 0.649629 11.1017 0.618691C10.99 0.558535 10.8834 0.532754 10.7717 0.508691C10.5483 0.458848 10.2905 0.439941 10.0017 0.439941ZM10.0017 1.31994C10.2406 1.31994 10.4658 1.34744 10.593 1.37494H10.6067C10.6566 1.51416 10.9092 2.34947 11.1567 3.14869C11.0553 3.25182 10.5672 3.51994 10.0017 3.51994C9.70438 3.51994 9.41047 3.46666 9.19047 3.38244C8.9825 3.30338 8.87078 3.18307 8.86047 3.17619C8.99453 2.74307 9.37438 1.48838 9.41047 1.37494C9.53766 1.34744 9.76281 1.31994 10.0017 1.31994ZM9.09422 4.27619C9.37266 4.35525 9.68031 4.39994 10.0017 4.39994C10.3283 4.39994 10.6325 4.36728 10.9092 4.28994C10.8989 4.32775 10.8817 4.35869 10.8817 4.39994C10.8817 4.64228 11.0794 4.83994 11.3217 4.83994C11.4438 4.83994 11.5589 4.79525 11.638 4.71619C11.7995 5.23697 11.9834 5.81619 12.1605 6.39369C12.047 6.50025 11.8717 6.61885 11.638 6.72369C11.5589 6.64463 11.4438 6.59994 11.3217 6.59994C11.1138 6.59994 10.9556 6.75119 10.9092 6.94369C10.6273 7.00213 10.3214 7.03994 10.0017 7.03994C9.68375 7.03994 9.37781 7.01416 9.09422 6.95744C9.05297 6.75807 8.89313 6.59994 8.68172 6.59994C8.55969 6.59994 8.44453 6.64463 8.36547 6.72369C8.14203 6.624 7.96328 6.51916 7.85672 6.42119C8.08187 5.689 8.19531 5.32635 8.37922 4.72994C8.45828 4.80213 8.56656 4.83994 8.68172 4.83994C8.92406 4.83994 9.12172 4.64228 9.12172 4.39994C9.12172 4.35525 9.10625 4.31744 9.09422 4.27619ZM10.0017 5.27994C9.75937 5.27994 9.56172 5.4776 9.56172 5.71994C9.56172 5.96228 9.75937 6.15994 10.0017 6.15994C10.2441 6.15994 10.4417 5.96228 10.4417 5.71994C10.4417 5.4776 10.2441 5.27994 10.0017 5.27994ZM12.4355 7.28744C12.5712 7.73432 12.683 8.10041 12.8205 8.55244C12.9356 8.934 13.025 9.22103 13.1367 9.59744C12.9184 9.78994 12.5988 9.99963 12.188 10.1612C11.5898 10.3967 10.8267 10.5599 10.0017 10.5599C9.17328 10.5599 8.39813 10.4156 7.78797 10.1887C7.39266 10.0426 7.085 9.84666 6.86672 9.66619C6.98531 9.2726 7.07469 8.96838 7.19672 8.56619C7.37547 7.9801 7.40641 7.88557 7.58172 7.31494C7.76391 7.42494 7.96844 7.52119 8.18672 7.60369C8.71094 7.80135 9.33313 7.91994 10.0017 7.91994C10.6703 7.91994 11.2856 7.80135 11.803 7.60369C12.035 7.51603 12.2447 7.40775 12.4355 7.28744ZM13.4117 10.5324C13.5544 11.0137 13.6936 11.4812 13.8242 11.9212C13.6523 11.9813 13.5217 12.1274 13.5217 12.3199C13.5217 12.5623 13.7194 12.7599 13.9617 12.7599C13.9978 12.7599 14.0253 12.741 14.058 12.7324C14.0648 12.7531 14.0786 12.7806 14.0855 12.8012C13.8397 13.0281 13.4736 13.2601 13.0267 13.4612C12.9563 13.3117 12.817 13.1999 12.6417 13.1999C12.3994 13.1999 12.2017 13.3976 12.2017 13.6399C12.2017 13.6846 12.2172 13.7224 12.2292 13.7637C11.5675 13.9596 10.8078 14.0799 10.0017 14.0799C9.19391 14.0799 8.42219 13.9699 7.76047 13.7912C7.77938 13.7413 7.80172 13.6967 7.80172 13.6399C7.80172 13.3976 7.60406 13.1999 7.36172 13.1999C7.16406 13.1999 7.00422 13.3374 6.94922 13.5162C6.50234 13.3254 6.14484 13.0882 5.90422 12.8699C5.91625 12.8304 5.93344 12.772 5.94547 12.7324C5.97813 12.741 6.00563 12.7599 6.04172 12.7599C6.28406 12.7599 6.48172 12.5623 6.48172 12.3199C6.48172 12.1326 6.35797 11.9848 6.19297 11.9212C6.32016 11.4949 6.45078 11.0395 6.59172 10.5737C6.71375 10.6528 6.83922 10.7387 6.97672 10.8074C6.94578 10.8676 6.92172 10.9278 6.92172 10.9999C6.92172 11.2423 7.11938 11.4399 7.36172 11.4399C7.56453 11.4399 7.72266 11.2956 7.77422 11.1099C8.4325 11.3162 9.19563 11.4399 10.0017 11.4399C10.8181 11.4399 11.5744 11.3024 12.2292 11.0824C12.2705 11.2818 12.4303 11.4399 12.6417 11.4399C12.8841 11.4399 13.0817 11.2423 13.0817 10.9999C13.0817 10.9106 13.0439 10.8349 12.9992 10.7662C13.1453 10.6906 13.2845 10.6184 13.4117 10.5324ZM10.0017 14.0799C10.2441 14.0799 10.4417 13.8823 10.4417 13.6399C10.4417 13.3976 10.2441 13.1999 10.0017 13.1999C9.75937 13.1999 9.56172 13.3976 9.56172 13.6399C9.56172 13.8823 9.75937 14.0799 10.0017 14.0799ZM8.68172 11.8799C8.43937 11.8799 8.24172 12.0776 8.24172 12.3199C8.24172 12.5623 8.43937 12.7599 8.68172 12.7599C8.92406 12.7599 9.12172 12.5623 9.12172 12.3199C9.12172 12.0776 8.92406 11.8799 8.68172 11.8799ZM11.3217 11.8799C11.0794 11.8799 10.8817 12.0776 10.8817 12.3199C10.8817 12.5623 11.0794 12.7599 11.3217 12.7599C11.5641 12.7599 11.7617 12.5623 11.7617 12.3199C11.7617 12.0776 11.5641 11.8799 11.3217 11.8799ZM3.75922 13.1999H4.88672C4.72172 13.7551 4.57391 14.2656 4.47422 14.6162C4.4175 14.8138 4.36766 14.9651 4.33672 15.0837C4.32125 15.1438 4.31953 15.192 4.30922 15.2349C4.29891 15.2779 4.28172 15.2693 4.28172 15.3999C4.28172 16.3109 5.03797 17.0465 6.06922 17.5862C7.10047 18.1259 8.48063 18.4799 10.0017 18.4799C11.5228 18.4799 12.903 18.1259 13.9342 17.5862C14.9655 17.0465 15.7217 16.3109 15.7217 15.3999C15.7217 15.271 15.7028 15.2779 15.6942 15.2349C15.6856 15.192 15.6822 15.1438 15.6667 15.0837C15.6358 14.9651 15.5842 14.8138 15.5292 14.6162C15.4312 14.2656 15.292 13.7551 15.1305 13.1999H16.2442C16.2666 13.1999 16.2717 13.2017 16.2717 13.1999L18.3617 19.8962V20.2399H1.64172V19.8962L3.70422 13.2687C3.70938 13.2584 3.71109 13.2618 3.71797 13.2549C3.73516 13.2378 3.75063 13.2103 3.75922 13.1999ZM14.3605 13.7224C14.4842 14.1384 14.6131 14.5732 14.6905 14.8499C14.7455 15.0442 14.7867 15.1954 14.8142 15.3037C14.8245 15.3467 14.8348 15.3742 14.8417 15.3999C14.8417 15.4034 14.8417 15.4103 14.8417 15.4137C14.8348 15.7798 14.3966 16.3453 13.5217 16.8024C12.64 17.2648 11.3853 17.5999 10.0017 17.5999C8.61812 17.5999 7.36344 17.2648 6.48172 16.8024C5.60687 16.3453 5.16859 15.7798 5.16172 15.4137C5.16172 15.4103 5.16172 15.4034 5.16172 15.3999C5.16859 15.3742 5.17891 15.3467 5.18922 15.3037C5.21672 15.1954 5.25797 15.0442 5.31297 14.8499C5.38688 14.5887 5.51406 14.1762 5.62922 13.7912C5.97125 14.0335 6.37516 14.2501 6.83922 14.4237C7.73125 14.7588 8.82781 14.9599 10.0017 14.9599C11.1567 14.9599 12.2292 14.7417 13.1092 14.3962C13.5939 14.2054 14.0098 13.9837 14.3605 13.7224Z" fill="#FB0A2A"/>
</svg>
