<svg width="22" height="22" viewBox="0 0 22 22" fill="none" xmlns="http://www.w3.org/2000/svg">
<path d="M0.88 0C0.39875 0 0 0.39875 0 0.88V21.12C0 21.6012 0.39875 22 0.88 22H2.64C3.12125 22 3.52 21.6012 3.52 21.12V18.48H9.24V21.12C9.24 21.6012 9.63875 22 10.12 22H11.88C12.3612 22 12.76 21.6012 12.76 21.12V18.48H18.48V21.12C18.48 21.6012 18.8787 22 19.36 22H21.12C21.6012 22 22 21.6012 22 21.12V0.88C22 0.39875 21.6012 0 21.12 0H19.36C18.8787 0 18.48 0.39875 18.48 0.88V3.08H12.76V0.88C12.76 0.39875 12.3612 0 11.88 0H10.12C9.63875 0 9.24 0.39875 9.24 0.88V3.08H3.52V0.88C3.52 0.39875 3.12125 0 2.64 0H0.88ZM0.88 0.88H2.64V21.12H0.88V0.88ZM10.12 0.88H11.88V21.12H10.12V0.88ZM19.36 0.88H21.12V21.12H19.36V0.88ZM3.52 3.96H9.24V4.4H3.52V3.96ZM12.76 3.96H18.48V4.4H12.76V3.96ZM3.52 5.28H9.24V7.48H3.52V5.28ZM12.76 5.28H18.48V7.48H12.76V5.28ZM3.52 8.36H9.24V8.8H3.52V8.36ZM12.76 8.36H18.48V8.8H12.76V8.36ZM3.52 9.68H9.24V11.88H3.52V9.68ZM12.76 9.68H18.48V11.88H12.76V9.68ZM3.52 12.76H9.24V13.2H3.52V12.76ZM12.76 12.76H18.48V13.2H12.76V12.76ZM3.52 14.08H9.24V16.28H3.52V14.08ZM12.76 14.08H18.48V16.28H12.76V14.08ZM3.52 17.16H9.24V17.6H3.52V17.16ZM12.76 17.16H18.48V17.6H12.76V17.16Z" fill="#FB0A2A"/>
</svg>
