<svg width="13" height="20" viewBox="0 0 13 20" fill="none" xmlns="http://www.w3.org/2000/svg">
<path fill-rule="evenodd" clip-rule="evenodd" d="M0 1.96078C0 0.877873 0.868701 0 1.9403 0H11.0597C12.1313 0 13 0.877873 13 1.96078V18.0392C13 19.1221 12.1313 20 11.0597 20H1.9403C0.868701 20 0 19.1221 0 18.0392V1.96078ZM1.9403 0.980392C1.4045 0.980392 0.970149 1.41933 0.970149 1.96078V18.0392C0.970149 18.5807 1.4045 19.0196 1.9403 19.0196H11.0597C11.5955 19.0196 12.0299 18.5807 12.0299 18.0392V1.96078C12.0299 1.41933 11.5955 0.980392 11.0597 0.980392H10.7201C10.3878 1.25763 10.2242 1.82976 10.132 2.47468C10.0592 2.98359 9.64691 3.38235 9.13809 3.38235H3.86191C3.35309 3.38235 2.94082 2.98359 2.86804 2.47468C2.77581 1.82976 2.61215 1.25763 2.27985 0.980392H1.9403ZM3.57452 1.25133C3.70136 1.59994 3.77741 1.97917 3.82821 2.33445C3.83272 2.36596 3.84701 2.38736 3.85807 2.39764C3.86045 2.39985 3.86347 2.40196 3.86347 2.40196H9.13653C9.13653 2.40196 9.13955 2.39985 9.14193 2.39764C9.15299 2.38736 9.16728 2.36596 9.17179 2.33445C9.2226 1.97917 9.29864 1.59994 9.42548 1.25133C9.45736 1.1637 9.4944 1.07251 9.53787 0.980392H3.46213C3.50559 1.07251 3.54264 1.1637 3.57452 1.25133Z" fill="#141414"/>
<path d="M4.75373 1.71569C4.75373 1.52618 4.90575 1.37255 5.09328 1.37255H6.64552C6.83305 1.37255 6.98507 1.52618 6.98507 1.71569C6.98507 1.9052 6.83305 2.05882 6.64552 2.05882H5.09328C4.90575 2.05882 4.75373 1.9052 4.75373 1.71569Z" fill="#141414"/>
<path d="M7.37313 1.71569C7.37313 1.52618 7.52516 1.37255 7.71269 1.37255C7.90022 1.37255 8.05224 1.52618 8.05224 1.71569C8.05224 1.9052 7.90022 2.05882 7.71269 2.05882C7.52516 2.05882 7.37313 1.9052 7.37313 1.71569Z" fill="#141414"/>
</svg>
