<svg width="15" height="15" viewBox="0 0 15 15" fill="none" xmlns="http://www.w3.org/2000/svg">
<g opacity="0.3">
<path d="M13.6082 11.0208C14.3223 11.7348 14.3223 12.8925 13.6082 13.6066C12.8942 14.3206 11.7365 14.3206 11.0225 13.6066L0.67931 3.26341C-0.0347353 2.54937 -0.0347355 1.39167 0.67931 0.677624C1.39335 -0.0364213 2.55105 -0.0364214 3.2651 0.677624L13.6082 11.0208Z" fill="#434343"/>
<path d="M3.2651 13.6066C2.55105 14.3206 1.39335 14.3206 0.67931 13.6066C-0.0347354 12.8925 -0.0347355 11.7348 0.67931 11.0208L11.0225 0.677625C11.7365 -0.036421 12.8942 -0.0364206 13.6082 0.677625C14.3223 1.39167 14.3223 2.54937 13.6082 3.26341L3.2651 13.6066Z" fill="#434343"/>
</g>
</svg>
