<svg width="27" height="26" viewBox="0 0 27 26" fill="none" xmlns="http://www.w3.org/2000/svg">
<path fill-rule="evenodd" clip-rule="evenodd" d="M10 0C15.5228 0 20 4.47715 20 10C20 12.2203 19.2764 14.2715 18.0522 15.9309L26.3253 24.2039L24.5575 25.9717L16.3287 17.7429C14.6049 19.1536 12.4013 20 10 20C4.47715 20 0 15.5228 0 10C0 4.47715 4.47715 0 10 0ZM10 18.8C14.8601 18.8 18.8 14.8601 18.8 10C18.8 5.13989 14.8601 1.2 10 1.2C5.13989 1.2 1.2 5.13989 1.2 10C1.2 14.8601 5.13989 18.8 10 18.8Z" fill="#141414"/>
</svg>
