<svg width="57" height="55" viewBox="0 0 57 55" fill="none" xmlns="http://www.w3.org/2000/svg">
<path d="M54.6888 36.9959C55.8775 35.5734 56.4475 34.0485 56.3747 32.4781C56.302 30.7483 55.4772 29.3941 54.798 28.5634C55.5864 26.7199 55.8896 23.818 53.2576 21.5648C51.3292 19.9147 48.0544 19.175 43.5182 19.3799C40.3283 19.5164 37.66 20.074 37.5508 20.0968H37.5387C36.9322 20.1992 36.2894 20.3244 35.6345 20.461C35.5859 19.7326 35.7194 17.9233 37.1506 13.8493C38.8486 9.00146 38.7516 5.29163 36.8352 2.81082C34.8218 0.204837 31.6077 0 30.6616 0C29.752 0 28.9151 0.352775 28.3208 1.00143C26.9745 2.46943 27.1322 5.17783 27.302 6.42961C25.701 10.4581 21.2133 20.3358 17.417 23.0783C17.3442 23.1238 17.2836 23.1807 17.2229 23.2376C16.1071 24.3415 15.3551 25.5364 14.8457 26.5833C14.1301 26.2192 13.3174 26.0143 12.4442 26.0143H5.04559C2.25596 26.0143 0 28.1424 0 30.7483V49.2406C0 51.8579 2.26809 53.9746 5.04559 53.9746H12.4442C13.5236 53.9746 14.5303 53.656 15.3551 53.1097L18.2054 53.4284C18.642 53.4853 26.4044 54.407 34.3731 54.2591C35.8164 54.3615 37.1748 54.4184 38.4362 54.4184C40.6073 54.4184 42.4994 54.2591 44.0761 53.9405C47.7875 53.2008 50.3225 51.7214 51.6081 49.5478C52.5905 47.8864 52.5905 46.2363 52.4329 45.1894C54.8465 43.141 55.271 40.8764 55.1861 39.2832C55.1376 38.3615 54.9193 37.5762 54.6888 36.9959ZM5.04559 50.902C4.06315 50.902 3.27478 50.151 3.27478 49.2406V30.737C3.27478 29.8152 4.07528 29.0755 5.04559 29.0755H12.4442C13.4266 29.0755 14.215 29.8266 14.215 30.737V49.2292C14.215 50.151 13.4145 50.8907 12.4442 50.8907H5.04559V50.902ZM51.5839 35.6644C51.0744 36.1651 50.9774 36.9276 51.3655 37.5193C51.3655 37.5307 51.8628 38.3273 51.9235 39.4198C52.0084 40.9105 51.2442 42.2306 49.6432 43.3572C49.0732 43.7669 48.8427 44.4724 49.0853 45.1097C49.0853 45.1211 49.6069 46.6232 48.7578 48.0457C47.9452 49.4113 46.138 50.3899 43.3969 50.9362C41.2016 51.38 38.2179 51.4596 34.555 51.1865C34.5065 51.1865 34.4458 51.1865 34.3852 51.1865C26.5864 51.3459 18.7026 50.3899 18.6177 50.3786H18.6056L17.3806 50.242C17.4534 49.9234 17.4898 49.582 17.4898 49.2406V30.737C17.4898 30.2476 17.4049 29.7697 17.2593 29.3259C17.4776 28.5634 18.0841 26.8678 19.5153 25.4226C24.9611 21.3713 30.2857 7.70415 30.5161 7.1124C30.6131 6.87343 30.6374 6.61169 30.5889 6.34995C30.3827 5.07541 30.4555 3.51637 30.7465 3.0498C31.3894 3.06118 33.1238 3.23188 34.1669 4.58608C35.404 6.19063 35.3555 9.05836 34.0213 12.8592C31.9837 18.6516 31.8139 21.7014 33.427 23.0442C34.2275 23.7156 35.2949 23.7497 36.0711 23.488C36.811 23.3287 37.5144 23.1921 38.1815 23.0897C38.23 23.0783 38.2907 23.0669 38.3392 23.0556C42.0627 22.2931 48.7336 21.8265 51.0502 23.8066C53.0151 25.4908 51.6202 27.7213 51.4626 27.9603C51.0138 28.5975 51.1472 29.4283 51.7537 29.9404C51.7658 29.9517 53.0393 31.0784 53.1 32.5919C53.1485 33.6047 52.6391 34.6402 51.5839 35.6644Z" fill="#FB0A2A"/>
</svg>
